<!-- Generated by IcoMoon.io -->
<svg version="1.1" xmlns="http://www.w3.org/2000/svg" width="24" height="28" viewBox="0 0 24 28">
<title>crosshairs</title>
<path d="M18.703 16h-1.703c-0.547 0-1-0.453-1-1v-2c0-0.547 0.453-1 1-1h1.703c-0.672-2.25-2.453-4.031-4.703-4.703v1.703c0 0.547-0.453 1-1 1h-2c-0.547 0-1-0.453-1-1v-1.703c-2.25 0.672-4.031 2.453-4.703 4.703h1.703c0.547 0 1 0.453 1 1v2c0 0.547-0.453 1-1 1h-1.703c0.672 2.25 2.453 4.031 4.703 4.703v-1.703c0-0.547 0.453-1 1-1h2c0.547 0 1 0.453 1 1v1.703c2.25-0.672 4.031-2.453 4.703-4.703zM24 13v2c0 0.547-0.453 1-1 1h-2.234c-0.766 3.359-3.406 6-6.766 6.766v2.234c0 0.547-0.453 1-1 1h-2c-0.547 0-1-0.453-1-1v-2.234c-3.359-0.766-6-3.406-6.766-6.766h-2.234c-0.547 0-1-0.453-1-1v-2c0-0.547 0.453-1 1-1h2.234c0.766-3.359 3.406-6 6.766-6.766v-2.234c0-0.547 0.453-1 1-1h2c0.547 0 1 0.453 1 1v2.234c3.359 0.766 6 3.406 6.766 6.766h2.234c0.547 0 1 0.453 1 1z"></path>
</svg>
