<!-- Generated by IcoMoon.io -->
<svg version="1.1" xmlns="http://www.w3.org/2000/svg" width="32" height="32" viewBox="0 0 32 32">
<title>Save as Markdown</title>
<path d="M29.692 25.847h-27.384c-1.274 0-2.307-1.033-2.307-2.307v0-15.080c0-1.274 1.033-2.307 2.307-2.307h27.384c1.274 0 2.307 1.033 2.307 2.307v15.077c0 0.001 0 0.002 0 0.003 0 1.274-1.033 2.307-2.307 2.307 0 0 0 0 0 0v0zM7.692 21.231v-6l3.077 3.847 3.076-3.847v6h3.077v-10.46h-3.077l-3.076 3.847-3.077-3.847h-3.077v10.463zM28.308 16h-3.077v-5.231h-3.076v5.231h-3.077l4.615 5.385z"></path>
</svg>
