<!-- Generated by IcoMoon.io -->
<svg version="1.1" xmlns="http://www.w3.org/2000/svg" width="32" height="32" viewBox="0 0 32 32">
<title>Save as PDF</title>
<path d="M3.2 6.4h-3.2v22.4c0 1.768 1.432 3.2 3.2 3.2h22.4v-3.2h-22.4v-22.4z"></path>
<path d="M11.2 10.4h1.6v1.6h-1.6v-1.6z"></path>
<path d="M28.8 0h-19.2c-1.768 0-3.2 1.432-3.2 3.2v19.2c0 1.768 1.432 3.2 3.2 3.2h19.2c1.768 0 3.2-1.432 3.2-3.2v-19.2c0-1.768-1.432-3.2-3.2-3.2zM15.2 12c0 1.328-1.072 2.4-2.4 2.4h-1.6v3.2h-2.4v-9.6h4c1.328 0 2.4 1.072 2.4 2.4v1.6zM23.2 15.2c0 1.328-1.072 2.4-2.4 2.4h-4v-9.6h4c1.328 0 2.4 1.072 2.4 2.4v4.8zM29.6 10.4h-2.4v1.6h2.4v2.4h-2.4v3.2h-2.4v-9.6h4.8v2.4z"></path>
<path d="M19.2 10.4h1.6v4.8h-1.6v-4.8z"></path>
</svg>
